<svg width="12" height="19" viewBox="0 0 12 19" fill="none" xmlns="http://www.w3.org/2000/svg">
<path d="M9.2 0.424998L0.774999 8.825C0.674999 8.925 0.604332 9.03333 0.562999 9.15C0.520999 9.26667 0.499999 9.39167 0.499999 9.525C0.499999 9.65833 0.520999 9.78333 0.562999 9.9C0.604332 10.0167 0.674999 10.125 0.774999 10.225L9.2 18.65C9.43333 18.8833 9.725 19 10.075 19C10.425 19 10.725 18.875 10.975 18.625C11.225 18.375 11.35 18.0833 11.35 17.75C11.35 17.4167 11.225 17.125 10.975 16.875L3.625 9.525L10.975 2.175C11.2083 1.94166 11.325 1.65433 11.325 1.313C11.325 0.971 11.2 0.674998 10.95 0.424998C10.7 0.174998 10.4083 0.0499984 10.075 0.0499984C9.74167 0.0499984 9.45 0.174998 9.2 0.424998Z" fill="#3B4554"/>
</svg>
