<svg width="64" height="24" viewBox="0 0 64 24" fill="none" xmlns="http://www.w3.org/2000/svg">
<path d="M11.8386 23.9979C11.9601 24.0003 12.0795 23.9662 12.1813 23.8999C12.2832 23.8336 12.3628 23.7382 12.41 23.6261L22.8787 0.880955C22.9299 0.786344 22.9546 0.679634 22.9502 0.572123C22.9457 0.464612 22.9123 0.360301 22.8535 0.270233C22.7947 0.180165 22.7127 0.107692 22.6161 0.060487C22.5195 0.013282 22.4119 -0.00689845 22.3048 0.00208215H18.8609C18.7399 0.00153298 18.6213 0.0364318 18.5198 0.102483C18.4183 0.168535 18.3383 0.262857 18.2896 0.373839L11.7713 14.9067H11.5999L5.08608 0.373839C5.03719 0.262507 4.95678 0.167959 4.85479 0.101887C4.75279 0.0358156 4.63369 0.00111702 4.51221 0.00208215H1.06897C0.96206 -0.00639938 0.854847 0.0141476 0.758629 0.0615574C0.662411 0.108967 0.580751 0.181484 0.522257 0.271464C0.463763 0.361444 0.430602 0.465554 0.426268 0.572821C0.421935 0.680089 0.446589 0.78654 0.497633 0.880955L10.927 23.6261C10.9741 23.7382 11.0538 23.8336 11.1556 23.8999C11.2575 23.9662 11.3769 24.0003 11.4984 23.9979H11.8361H11.8386Z" fill="#3B4554"/>
<path fill-rule="evenodd" clip-rule="evenodd" d="M34.7087 0.100102C34.6068 0.0338239 34.4874 -0.000326165 34.366 0.00207123H34.3634H34.0257C33.9042 -0.000326165 33.7849 0.0338239 33.683 0.100102C33.5811 0.16638 33.5015 0.261736 33.4544 0.373829L23.025 23.119C22.9739 23.2134 22.9493 23.3199 22.9536 23.4272C22.9579 23.5344 22.9911 23.6385 23.0496 23.7285C23.1081 23.8185 23.1898 23.891 23.286 23.9384C23.3822 23.9858 23.4894 24.0064 23.5963 23.9979H27.0421C27.1632 23.9984 27.2817 23.9635 27.3833 23.8975C27.4848 23.8314 27.5648 23.7371 27.6134 23.6261L34.1273 9.09328H34.2987L40.817 23.6261C40.8656 23.7371 40.9456 23.8314 41.0471 23.8975C41.1486 23.9635 41.2672 23.9984 41.3883 23.9979H41.5978C41.6291 24.0004 41.6605 24.0004 41.692 23.9979H44.8347C44.8662 24.0004 44.8977 24.0004 44.9289 23.9979H45.1384C45.2595 23.9984 45.3781 23.9635 45.4796 23.8975C45.5811 23.8314 45.6611 23.7371 45.7098 23.6261L52.2255 9.09328H52.3944L58.9139 23.6261C58.9626 23.7371 59.0426 23.8314 59.1441 23.8975C59.2456 23.9635 59.3642 23.9984 59.4853 23.9979H62.9304C63.0373 24.0064 63.1445 23.9858 63.2407 23.9384C63.337 23.891 63.4186 23.8185 63.4771 23.7285C63.5356 23.6385 63.5688 23.5344 63.5731 23.4272C63.5774 23.3199 63.5528 23.2134 63.5017 23.119L53.033 0.373829C52.9859 0.261736 52.9062 0.16638 52.8044 0.100102C52.7025 0.0338239 52.5831 -0.000326165 52.4617 0.00207123H52.4591H52.1214C51.9999 -0.000326165 51.8806 0.0338239 51.7787 0.100102C51.6768 0.16638 51.5972 0.261736 51.5501 0.373829L43.2593 18.4549L34.9373 0.373829C34.8902 0.261736 34.8105 0.16638 34.7087 0.100102Z" fill="#3B4554"/>
</svg>
