<svg width="68" height="24" viewBox="0 0 68 24" fill="none" xmlns="http://www.w3.org/2000/svg">
<path d="M11.4128 23.9979C11.5343 24.0003 11.6537 23.9662 11.7555 23.8999C11.8574 23.8336 11.937 23.7382 11.9842 23.6261L22.4529 0.880955C22.5041 0.786344 22.5288 0.679634 22.5244 0.572123C22.5199 0.464612 22.4866 0.360301 22.4277 0.270233C22.3689 0.180165 22.2869 0.107692 22.1903 0.060487C22.0937 0.013282 21.9862 -0.00689845 21.879 0.00208215H18.4352C18.3141 0.00153298 18.1955 0.0364318 18.094 0.102483C17.9925 0.168535 17.9125 0.262857 17.8638 0.373839L11.3455 14.9067H11.1741L4.6603 0.373839C4.61141 0.262507 4.531 0.167959 4.42901 0.101887C4.32701 0.0358156 4.20791 0.00111702 4.08643 0.00208215H0.643186C0.536279 -0.00639938 0.429066 0.0141476 0.332848 0.0615574C0.236629 0.108967 0.15497 0.181484 0.096476 0.271464C0.0379821 0.361444 0.00482073 0.465554 0.000487007 0.572821C-0.00384671 0.680089 0.0208078 0.78654 0.0718519 0.880955L10.5012 23.6261C10.5484 23.7382 10.628 23.8336 10.7299 23.8999C10.8317 23.9662 10.9511 24.0003 11.0726 23.9979H11.4103H11.4128Z" fill="#3B4554"/>
<path fill-rule="evenodd" clip-rule="evenodd" d="M39.1345 0.100102C39.0326 0.0338239 38.9132 -0.000326165 38.7917 0.00207123H38.7892H38.4515C38.33 -0.000326165 38.2106 0.0338239 38.1088 0.100102C38.0069 0.16638 37.9273 0.261736 37.8801 0.373829L27.4508 23.119C27.3997 23.2134 27.3751 23.3199 27.3794 23.4272C27.3837 23.5344 27.4169 23.6385 27.4754 23.7285C27.5339 23.8185 27.6155 23.891 27.7118 23.9384C27.808 23.9858 27.9152 24.0064 28.0221 23.9979H31.4679C31.5889 23.9984 31.7075 23.9635 31.809 23.8975C31.9106 23.8314 31.9906 23.7371 32.0392 23.6261L38.5531 9.09328H38.7245L45.2427 23.6261C45.2914 23.7371 45.3714 23.8314 45.4729 23.8975C45.5744 23.9635 45.693 23.9984 45.8141 23.9979H46.0242C46.0554 24.0004 46.0869 24.0004 46.1184 23.9979H49.2605C49.292 24.0004 49.3235 24.0004 49.3547 23.9979H49.5648C49.6858 23.9984 49.8044 23.9635 49.9059 23.8975C50.0075 23.8314 50.0875 23.7371 50.1361 23.6261L56.6519 9.09328H56.8207L63.3403 23.6261C63.3889 23.7371 63.4689 23.8314 63.5704 23.8975C63.672 23.9635 63.7905 23.9984 63.9116 23.9979H67.3568C67.4637 24.0064 67.5709 23.9858 67.6671 23.9384C67.7633 23.891 67.845 23.8185 67.9035 23.7285C67.962 23.6385 67.9951 23.5344 67.9995 23.4272C68.0038 23.3199 67.9791 23.2134 67.9281 23.119L57.4593 0.373829C57.4122 0.261736 57.3326 0.16638 57.2307 0.100102C57.1289 0.0338239 57.0095 -0.000326165 56.888 0.00207123H56.8855H56.5477C56.4263 -0.000326165 56.3069 0.0338239 56.205 0.100102C56.1032 0.16638 56.0235 0.261736 55.9764 0.373829L47.6854 18.4555L39.3631 0.373829C39.316 0.261736 39.2363 0.16638 39.1345 0.100102Z" fill="#3B4554"/>
</svg>
