<svg width="335" height="40" viewBox="0 0 335 40" fill="none" xmlns="http://www.w3.org/2000/svg">
<path d="M68.2801 0.0135301C69.2157 0.0135301 69.656 0.611193 69.546 1.57407L69.1451 4.22919C68.6355 7.6049 65.7921 10.0961 62.4491 10.0957L49.9215 10.0949C44.6886 10.0949 39.7086 12.3956 36.2522 16.4099L28.2337 25.7225C26.9871 27.1704 25.1909 28.0002 23.3034 28.0002C21.4423 28.0002 19.6979 27.0735 18.6288 25.517L16.8425 22.9161C16.4607 22.3601 15.8712 21.9896 15.2133 21.892C13.894 21.6964 12.6692 22.6306 12.4777 23.9786L11.0681 33.9032C10.5847 37.3063 7.72945 39.8308 4.36387 39.8308H1.29723C0.361617 39.8308 -0.133706 39.3777 0.0314017 38.4148C2.12463 25.4177 3.69455 15.6699 4.74116 9.17133C4.80681 8.76375 5.08123 7.32099 5.56444 4.84306C5.88182 3.21525 6.8761 1.80883 8.28879 0.989358C10.9755 -0.569173 14.3902 0.392785 15.9155 3.13795L21.5566 13.29C21.6934 13.5362 21.8686 13.7578 22.0754 13.9461C23.1227 14.9 24.7286 14.8058 25.6622 13.7356L31.9513 6.52672C35.5665 2.38287 40.7411 0.0130208 46.1741 0.0130208L68.2801 0.0135301ZM63.2719 17.849C64.2075 17.849 64.6478 18.4154 64.5377 19.3782L64.1342 22.0607C63.6262 25.4377 60.7824 27.9309 57.4384 27.9309H51.9213C50.6636 27.9309 49.5952 28.8712 49.4089 30.142L48.8696 33.8214C48.3733 37.207 45.5272 39.7119 42.1767 39.7119H39.056C38.1204 39.7119 37.6801 39.1455 37.7902 38.1827L39.0926 28.669C39.9337 22.5255 45.0381 17.9292 51.1089 17.849H63.2719Z" fill="url(#paint0_linear_779_1516)"/>
<path d="M97.5585 34.0588L98.1982 29.4916C98.3307 28.5456 99.1887 27.8884 100.115 28.0238C100.713 28.1114 101.221 28.5186 101.446 29.0923L103.288 33.7806C104.008 35.6129 105.746 36.8137 107.678 36.8137C109.683 36.8137 111.561 35.8147 112.712 34.1371L116.133 29.1483C116.67 28.3656 117.726 28.1756 118.492 28.724C119.008 29.0934 119.28 29.7251 119.199 30.3636L118.172 38.4637C118.062 39.3741 118.503 40 119.44 40H122.246C125.683 40 128.576 37.3692 128.974 33.8804L132.674 1.47937C132.784 0.56899 132.288 0 131.351 0H127.27C126.553 0 126.057 0.284495 125.616 0.910384L112.103 20.5933C111.297 21.7669 109.713 22.0509 108.564 21.2277C108.16 20.9377 107.847 20.5335 107.664 20.0645L100.251 1.08108C99.9755 0.341394 99.4241 0 98.6521 0H94.1305C93.3034 0 92.6417 0.625889 92.5314 1.36558L86.6313 38.5775C86.4659 39.5448 86.9622 40 87.8996 40H90.8524C94.2231 40 97.081 37.4681 97.5585 34.0588ZM150.111 36.643L151.102 34.6881C151.538 33.8267 152.408 33.2859 153.358 33.2859H163.215C163.998 33.2859 164.679 33.8344 164.861 34.6124L165.873 38.9189C166.039 39.6586 166.59 40 167.362 40H170.824C173.396 40 175.481 37.8695 175.481 35.2413C175.481 34.8083 175.423 34.3774 175.309 33.9603L166.314 1.08108C166.094 0.341394 165.653 0 164.881 0H160.855C160.083 0 159.532 0.341394 159.146 1.08108L138.578 38.3499C138.027 39.3741 138.413 40 139.461 40H144.71C146.983 40 149.066 38.7052 150.111 36.643ZM161.912 25.0925H157.249C156.548 25.0925 155.979 24.5114 155.979 23.7946C155.979 23.5795 156.032 23.3677 156.132 23.1783L159.27 17.2357C159.603 16.605 160.374 16.3695 160.991 16.7099C161.301 16.8807 161.528 17.1753 161.617 17.5232L163.14 23.4658C163.318 24.1592 162.912 24.8685 162.233 25.0501C162.128 25.0782 162.02 25.0925 161.912 25.0925ZM201.223 40C216.387 40 225.154 30.5548 225.154 17.1266C225.154 6.82788 218.537 0 206.682 0H193.558C192.731 0 192.235 0.398293 192.125 1.30868L187.052 38.4637C186.941 39.431 187.382 40 188.375 40H201.223ZM203.649 30.441H200.629C199.694 30.441 198.935 29.6662 198.935 28.7105C198.935 28.6316 198.941 28.5528 198.951 28.4747L201.197 11.8008C201.37 10.5161 202.444 9.55903 203.713 9.55903H205.91C211.589 9.55903 214.291 13.0299 214.291 18.2646C214.291 25.377 210.211 30.441 203.649 30.441ZM245.904 34.0825L246.36 30.7716C246.565 29.2768 247.817 28.165 249.295 28.165H254.483C257.862 28.165 260.724 25.6206 261.192 22.2011L261.551 19.5733C261.662 18.606 261.221 18.037 260.283 18.037H250.035C249.1 18.037 248.342 17.2622 248.342 16.3066C248.342 16.2289 248.347 16.1514 248.357 16.0745L248.797 12.7501C248.996 11.2483 250.251 10.128 251.734 10.128H259.498C262.875 10.128 265.736 7.58733 266.206 4.17094L266.569 1.53627C266.68 0.56899 266.238 0 265.301 0H241.259C240.432 0 239.936 0.398293 239.826 1.30868L234.753 38.4637C234.643 39.431 235.084 40 236.021 40H239.241C242.595 40 245.437 37.4761 245.904 34.0825ZM284.789 34.0368L289.236 1.53627C289.347 0.56899 288.906 0 287.968 0H280.193C279.366 0 278.87 0.398293 278.76 1.30868L273.687 38.4637C273.576 39.431 274.017 40 274.955 40H278.08C281.459 40 284.321 37.4559 284.789 34.0368ZM317.993 34.034L321.027 11.7963C321.202 10.5136 322.276 9.55903 323.544 9.55903H327.35C330.722 9.55903 333.581 7.02438 334.057 3.61295L334.346 1.53627C334.456 0.56899 334.015 0 333.078 0H301.703C300.875 0 300.379 0.398293 300.269 1.30868L299.331 8.02276C299.221 8.99004 299.662 9.55903 300.6 9.55903H308.857C309.792 9.55903 310.55 10.3338 310.55 11.2895C310.55 11.3688 310.545 11.4481 310.534 11.5267L306.886 38.4637C306.775 39.431 307.217 40 308.154 40H311.284C314.664 40 317.527 37.4544 317.993 34.034Z" fill="url(#paint1_linear_779_1516)"/>
<defs>
<linearGradient id="paint0_linear_779_1516" x1="51.9712" y1="1.00235e-05" x2="338.992" y2="47.3316" gradientUnits="userSpaceOnUse">
<stop stop-color="#60D1CA"/>
<stop offset="1" stop-color="#BBE4BD"/>
</linearGradient>
<linearGradient id="paint1_linear_779_1516" x1="51.9712" y1="1.00235e-05" x2="338.992" y2="47.3316" gradientUnits="userSpaceOnUse">
<stop stop-color="#60D1CA"/>
<stop offset="1" stop-color="#BBE4BD"/>
</linearGradient>
</defs>
</svg>
