<svg viewBox="0 0 25 24" fill="none" xmlns="http://www.w3.org/2000/svg">
<path fill-rule="evenodd" clip-rule="evenodd" d="M20.0985 7.98749C20.1112 8.16248 20.1112 8.33751 20.1112 8.5125C20.1112 13.85 15.9869 20 8.44874 20C6.12638 20 3.96903 19.3375 2.1543 18.1875C2.48426 18.225 2.80149 18.2375 3.14414 18.2375C5.06036 18.2375 6.82435 17.6 8.23299 16.5125C6.43095 16.475 4.92079 15.3125 4.40048 13.7125C4.6543 13.75 4.9081 13.775 5.17462 13.775C5.54263 13.775 5.91068 13.725 6.2533 13.6375C4.37513 13.2625 2.96645 11.6375 2.96645 9.67499V9.62501C3.51211 9.92501 4.14669 10.1125 4.81923 10.1375C3.71516 9.41247 2.99184 8.17498 2.99184 6.77497C2.99184 6.02499 3.19485 5.33749 3.5502 4.73748C5.56798 7.18748 8.601 8.78745 12.002 8.96248C11.9386 8.66248 11.9005 8.35001 11.9005 8.03751C11.9005 5.81248 13.7279 4 15.9995 4C17.1797 4 18.2456 4.4875 18.9944 5.275C19.9208 5.10001 20.8091 4.76249 21.5959 4.3C21.2913 5.23752 20.6441 6.02502 19.7939 6.52499C20.6188 6.43753 21.4183 6.21248 22.1543 5.90001C21.596 6.69998 20.898 7.41245 20.0985 7.98749Z" />
</svg>

