<svg viewBox="0 0 25 17" xmlns="http://www.w3.org/2000/svg">
<path fill-rule="evenodd" clip-rule="evenodd" d="M22.8458 1.28682C23.2184 1.6595 23.487 2.1233 23.6247 2.63205C24.4173 5.82283 24.2342 10.8622 23.64 14.1761C23.5024 14.6849 23.2338 15.1487 22.8612 15.5213C22.4885 15.894 22.0247 16.1626 21.5159 16.3002C19.6535 16.8082 12.1575 16.8082 12.1575 16.8082C12.1575 16.8082 4.6616 16.8082 2.79916 16.3002C2.29041 16.1626 1.82661 15.894 1.45393 15.5213C1.08126 15.1487 0.812716 14.6849 0.675051 14.1761C-0.122259 10.9992 0.0963084 5.95674 0.659659 2.64744C0.797324 2.13869 1.06587 1.67489 1.43854 1.30221C1.81122 0.929537 2.27502 0.660996 2.78377 0.523331C4.64621 0.0153921 12.1422 0 12.1422 0C12.1422 0 19.6381 0 21.5005 0.507939C22.0093 0.645604 22.4731 0.914145 22.8458 1.28682ZM15.9747 8.40399L9.75635 12.0057V4.80225L15.9747 8.40399Z" />
</svg>
