<?xml version="1.0" standalone="no"?>
<!DOCTYPE svg PUBLIC "-//W3C//DTD SVG 20010904//EN"
 "http://www.w3.org/TR/2001/REC-SVG-20010904/DTD/svg10.dtd">
<svg version="1.0" xmlns="http://www.w3.org/2000/svg"
 width="1707.000000pt" height="1707.000000pt" viewBox="0 0 1707.000000 1707.000000"
 preserveAspectRatio="xMidYMid meet">
<metadata>
Created by potrace 1.11, written by Peter Selinger 2001-2013
</metadata>
<g transform="translate(0.000000,1707.000000) scale(0.100000,-0.100000)"
fill="#000000" stroke="none">
<path d="M8421 17033 c-215 -110 -512 -446 -775 -877 -36 -59 -66 -110 -66
-112 0 -3 -12 -23 -27 -47 -39 -62 -209 -400 -285 -567 -37 -80 -80 -175 -96
-211 -42 -92 -253 -588 -317 -744 -75 -184 -97 -251 -93 -283 l3 -27 33 35
c19 19 97 112 174 205 223 270 330 393 489 560 37 39 78 83 93 99 14 16 72 78
128 139 57 60 108 115 113 121 6 7 35 39 65 72 93 101 213 234 310 344 51 58
109 123 129 145 20 22 83 96 140 165 57 69 109 126 116 128 8 2 51 -64 105
-160 197 -349 235 -413 313 -525 31 -46 57 -88 57 -93 0 -6 3 -10 8 -10 4 0
18 -17 32 -37 14 -20 32 -44 40 -52 9 -9 33 -38 55 -66 22 -27 90 -101 150
-163 61 -63 113 -119 117 -126 4 -7 -23 -32 -74 -66 -275 -186 -528 -536 -646
-892 -22 -68 -43 -139 -46 -158 -3 -19 -8 -46 -11 -60 -15 -80 -21 -287 -11
-405 28 -320 160 -643 380 -925 65 -83 224 -243 301 -301 236 -180 535 -300
855 -342 97 -13 376 -16 425 -4 11 3 43 8 70 11 89 11 257 57 365 99 426 165
767 484 956 893 45 96 79 193 121 339 12 42 33 152 39 201 13 108 8 302 -11
389 -54 247 -96 378 -170 526 -42 84 -122 212 -169 267 -152 183 -214 245
-341 341 -114 85 -184 128 -318 190 -231 108 -410 149 -722 167 -60 3 -113 9
-116 12 -3 4 -20 48 -38 97 -31 85 -138 308 -184 385 -67 113 -152 235 -218
315 -76 91 -172 201 -223 254 -79 82 -364 364 -396 391 -14 11 -43 38 -66 58
-253 231 -423 322 -621 336 -69 5 -77 3 -142 -31z"/>
<path d="M14054 14466 c-57 -18 -145 -69 -230 -133 -77 -57 -337 -312 -374
-367 l-23 -33 -166 82 c-280 140 -370 179 -431 191 -45 8 -55 8 -97 6 -86 -6
72 -207 399 -507 l86 -80 -65 -135 c-145 -300 -185 -519 -120 -652 98 -198
364 -115 706 220 46 46 90 81 97 78 6 -2 63 -42 125 -88 252 -186 463 -334
781 -546 181 -122 197 -134 189 -155 -5 -12 -27 -62 -49 -112 -51 -113 -99
-255 -108 -320 -11 -79 -8 -210 5 -257 24 -83 76 -119 174 -120 143 0 311 100
542 323 l110 107 145 -74 c233 -118 409 -182 465 -168 33 8 38 29 16 72 -29
56 -61 92 -249 283 l-173 176 37 54 c38 55 177 338 207 419 60 164 77 359 39
440 -28 60 -40 73 -89 99 -49 24 -79 26 -148 7 -180 -48 -382 -201 -615 -464
l-55 -63 -115 87 c-63 48 -194 142 -290 210 -96 68 -179 128 -185 132 -5 4
-75 52 -155 106 -248 169 -330 227 -330 234 0 4 36 81 79 172 125 260 167 405
164 574 -2 90 -28 154 -76 190 -35 26 -160 33 -223 12z"/>
<path d="M5645 12960 c-27 -4 -68 -10 -90 -14 -68 -11 -233 -55 -303 -82 -150
-56 -310 -176 -537 -401 -313 -310 -593 -676 -824 -1078 -29 -49 -56 -97 -61
-105 -51 -83 -232 -435 -299 -580 -97 -211 -310 -732 -476 -1165 -31 -82 -61
-159 -66 -170 -41 -92 -106 -297 -103 -325 0 -8 2 -23 2 -32 4 -36 21 -23 112
79 81 90 95 106 300 359 202 246 357 429 415 488 17 17 75 81 130 141 55 61
107 117 115 125 8 8 58 62 110 120 52 57 102 111 110 120 107 115 217 236 256
280 27 30 74 81 105 115 63 67 77 82 169 186 36 40 79 88 97 106 17 19 44 49
60 67 22 26 112 127 188 210 6 6 53 61 105 121 51 61 101 117 109 126 9 9 34
37 56 64 133 159 203 241 242 282 38 39 17 45 253 -70 96 -46 240 -116 320
-155 496 -240 954 -378 1475 -444 109 -13 506 -17 597 -6 472 61 727 246 888
645 l33 82 -68 63 c-284 264 -685 448 -1315 603 -151 37 -488 106 -590 120
-14 2 -63 10 -110 19 -109 19 -148 26 -185 32 -16 2 -41 6 -55 9 -23 4 -71 11
-137 19 -56 8 -119 17 -143 21 -14 2 -56 7 -95 11 -38 3 -81 8 -95 10 -49 9
-646 12 -695 4z"/>
<path d="M13989 12662 c-19 -20 -74 -89 -122 -152 -48 -63 -90 -119 -95 -125
-4 -5 -50 -68 -102 -140 -165 -228 -418 -547 -578 -730 -15 -17 -56 -66 -92
-110 -35 -44 -70 -86 -77 -93 -7 -7 -29 -34 -50 -60 -21 -26 -42 -52 -48 -58
-5 -6 -28 -32 -50 -59 -42 -51 -103 -124 -139 -165 -163 -190 -636 -783 -815
-1022 -74 -98 -137 -178 -141 -178 -5 0 -93 89 -197 198 -274 287 -486 498
-583 578 -316 264 -682 494 -955 602 -91 36 -225 78 -279 88 -208 36 -365 21
-502 -49 -100 -51 -205 -169 -267 -298 -15 -31 -44 -107 -66 -168 l-40 -112
56 -92 c171 -283 400 -543 668 -760 192 -155 464 -338 707 -475 18 -11 85 -48
148 -84 63 -36 133 -76 155 -88 69 -39 457 -234 530 -266 202 -90 396 -148
534 -160 273 -23 379 4 566 145 60 45 254 234 310 301 118 141 194 243 295
395 40 61 81 122 91 137 11 15 19 30 19 32 0 3 16 30 35 60 19 30 35 57 35 59
0 3 19 36 42 73 55 91 229 441 313 629 63 140 185 437 226 550 10 28 25 68 33
90 28 76 128 360 161 460 19 55 79 233 135 395 94 274 125 369 169 525 20 69
26 151 13 159 -5 3 -25 -11 -43 -32z"/>
<path d="M7900 11053 c-202 -51 -418 -228 -588 -480 -93 -137 -205 -399 -228
-530 -3 -15 -7 -36 -10 -45 -14 -46 -16 -74 -19 -208 -4 -208 22 -341 90 -455
64 -105 128 -159 236 -195 54 -19 78 -21 154 -17 102 7 155 21 253 70 228 112
463 394 591 708 39 96 86 254 96 322 3 20 8 54 11 75 8 48 8 236 0 284 -18
112 -53 218 -91 278 -53 83 -161 170 -238 191 -62 17 -194 18 -257 2z"/>
<path d="M2268 10095 c-2 -1 -25 -5 -51 -8 -145 -18 -442 -240 -631 -475 -32
-40 -62 -71 -65 -70 -3 2 -107 54 -231 115 -232 115 -338 158 -413 168 -105
15 -78 -66 78 -234 118 -127 321 -321 345 -329 23 -8 13 -39 -68 -212 -33 -71
-79 -190 -87 -224 -2 -11 -9 -39 -15 -61 -19 -68 -22 -246 -5 -301 40 -135
178 -162 360 -72 107 53 217 138 372 291 l72 70 73 -53 c264 -193 665 -473
924 -645 l121 -80 -48 -101 c-26 -56 -65 -151 -85 -210 -35 -102 -38 -118 -41
-246 -3 -143 3 -176 40 -217 94 -102 264 -72 480 87 73 54 90 69 218 195 49
48 91 87 94 87 2 0 71 -32 152 -71 241 -116 352 -161 434 -175 34 -6 64 26 55
59 -9 38 -79 119 -251 295 -88 90 -163 170 -168 177 -5 9 8 38 33 80 79 130
165 315 211 457 55 172 54 360 -2 439 -21 30 -69 56 -114 62 -85 11 -236 -51
-381 -158 -77 -57 -274 -246 -347 -334 l-36 -43 -163 118 c-89 66 -172 126
-184 134 -38 26 -398 279 -409 288 -23 18 -177 122 -181 122 -3 0 -14 9 -26
20 -12 11 -28 20 -35 20 -7 0 -13 3 -13 8 0 4 -18 18 -39 31 l-39 24 63 121
c135 257 196 457 191 621 -4 131 -50 202 -144 223 -23 6 -42 8 -44 7z"/>
<path d="M7304 8778 c-343 -182 -601 -381 -714 -550 -221 -331 -10 -715 605
-1100 210 -132 802 -411 1035 -488 14 -5 63 -23 110 -40 221 -82 415 -140 715
-215 99 -25 191 -48 205 -52 14 -3 34 -8 44 -10 11 -2 49 -10 85 -19 37 -9 77
-18 91 -20 14 -3 33 -7 42 -10 9 -3 25 -6 35 -8 67 -14 343 -75 493 -110 112
-27 222 -56 234 -63 19 -11 20 -10 -359 -398 -161 -166 -314 -323 -340 -350
-26 -28 -91 -95 -144 -151 -53 -55 -141 -149 -197 -210 -56 -60 -127 -137
-160 -172 -32 -35 -66 -73 -77 -85 -10 -12 -54 -60 -96 -107 -43 -47 -127
-139 -186 -205 -60 -66 -111 -122 -114 -125 -3 -3 -35 -38 -71 -79 -36 -41
-74 -84 -85 -96 -11 -11 -40 -43 -65 -71 -51 -58 -163 -183 -200 -224 -51 -56
-99 -109 -230 -255 -74 -82 -158 -175 -186 -205 -28 -30 -62 -67 -76 -82 -13
-14 -62 -68 -108 -120 -47 -51 -306 -313 -576 -583 -269 -269 -515 -519 -544
-554 l-55 -64 54 6 c30 4 59 11 65 17 5 5 16 10 23 10 19 0 221 101 388 195
244 136 531 300 550 315 6 4 35 21 65 37 30 17 150 86 265 153 116 68 226 132
245 143 338 191 1147 679 1415 852 200 130 421 274 430 282 6 4 30 22 55 38
165 111 424 294 555 394 33 25 65 49 70 53 133 101 489 391 536 437 9 9 52 47
95 85 137 121 546 536 646 656 252 304 406 573 413 720 4 110 -72 316 -161
431 -105 137 -328 334 -544 480 -90 61 -358 227 -390 242 -8 4 -28 16 -45 27
-16 11 -36 23 -44 27 -19 9 -311 170 -331 182 -8 5 -49 27 -90 49 -41 23 -118
63 -170 91 -609 326 -1322 615 -1805 730 -27 7 -66 16 -85 21 -55 14 -93 23
-115 26 -11 2 -38 8 -60 14 -22 5 -53 12 -70 15 -16 3 -66 12 -110 20 -92 16
-146 24 -195 31 -40 5 -103 13 -140 19 -14 2 -59 6 -100 10 -41 4 -93 8 -115
11 -22 2 -80 6 -130 9 -49 3 -124 7 -166 10 -63 3 -82 1 -115 -17z"/>
<path d="M6450 7293 c-136 -11 -260 -58 -357 -136 -82 -66 -276 -265 -368
-378 -29 -35 -98 -121 -112 -139 -6 -8 -32 -40 -56 -70 -196 -246 -816 -1094
-1136 -1555 -30 -44 -133 -190 -228 -325 -95 -135 -177 -252 -183 -260 -6 -8
-121 -170 -256 -360 -134 -190 -252 -356 -262 -370 -9 -14 -73 -104 -141 -200
-69 -96 -222 -312 -341 -480 -119 -168 -312 -440 -430 -605 -203 -285 -687
-968 -747 -1053 -15 -22 -75 -106 -133 -188 -584 -824 -648 -922 -716 -1102
l-24 -63 22 7 c67 20 177 93 323 213 130 107 137 113 241 207 43 39 102 91
129 115 28 24 66 58 85 76 19 17 45 40 57 50 27 24 176 158 219 198 17 17 69
64 115 105 46 41 110 100 144 131 33 31 74 70 91 85 17 16 80 74 139 129 59
55 119 111 134 124 14 13 80 75 146 136 66 62 136 127 155 145 37 34 289 273
369 350 81 77 460 441 545 523 72 70 372 358 511 492 29 28 157 151 286 275
460 441 1387 1377 1715 1730 38 41 78 84 89 95 11 12 54 59 95 105 41 46 82
91 90 100 33 35 119 138 190 227 273 341 380 799 270 1162 -11 36 -21 69 -21
73 0 4 -16 39 -35 78 -32 66 -109 156 -182 213 -77 60 -232 123 -327 133 -27
3 -54 6 -60 7 -5 1 -26 1 -45 0z"/>
</g>
</svg>
