<svg viewBox="0 0 25 24" fill="none" xmlns="http://www.w3.org/2000/svg">
<path fill-rule="evenodd" clip-rule="evenodd" d="M10.9794 2H13.3282C15.0035 2.00379 15.3881 2.01855 16.277 2.0591C17.3414 2.10765 18.0684 2.27672 18.7045 2.52396C19.3621 2.77949 19.9199 3.12144 20.4759 3.6774C21.0318 4.2334 21.3738 4.79111 21.6293 5.44873C21.8765 6.08484 22.0456 6.81182 22.0942 7.87626C22.1412 8.90737 22.1535 9.25998 22.1543 11.7357V12.2633C22.1535 14.739 22.1412 15.0916 22.0942 16.1227C22.0456 17.1871 21.8765 17.9141 21.6293 18.5502C21.3738 19.2079 21.0318 19.7656 20.4759 20.3216C19.9199 20.8775 19.3621 21.2195 18.7045 21.475C18.0684 21.7222 17.3414 21.8913 16.277 21.9399C15.2459 21.9869 14.8933 21.9992 12.4176 22H11.89C9.41428 21.9992 9.06167 21.9869 8.03056 21.9399C6.96612 21.8913 6.23914 21.7222 5.60303 21.475C4.94541 21.2195 4.3877 20.8775 3.8317 20.3216C3.27574 19.7656 2.93379 19.2079 2.67826 18.5502C2.43102 17.9141 2.26195 17.1871 2.2134 16.1227C2.17284 15.2338 2.15809 14.8492 2.1543 13.1739V10.8251C2.15809 9.1498 2.17284 8.76515 2.2134 7.87626C2.26195 6.81182 2.43102 6.08484 2.67826 5.44873C2.93379 4.79111 3.27574 4.2334 3.8317 3.6774C4.3877 3.12144 4.94541 2.77949 5.60303 2.52396C6.23914 2.27672 6.96612 2.10765 8.03056 2.0591C8.91945 2.01855 9.3041 2.00379 10.9794 2H13.3282H10.9794ZM12.8873 3.80115H11.4202C9.41288 3.80324 9.06176 3.81583 8.11269 3.85914C7.13765 3.9036 6.60813 4.06651 6.25573 4.20347C5.78893 4.38489 5.45579 4.60159 5.10586 4.95157C4.75589 5.3015 4.53918 5.63464 4.35777 6.10144C4.22081 6.45383 4.05789 6.98335 4.01343 7.9584C3.97013 8.90746 3.95754 9.25858 3.95545 11.2659V12.733C3.95754 14.7404 3.97013 15.0915 4.01343 16.0406C4.05789 17.0156 4.22081 17.5451 4.35777 17.8975C4.53918 18.3643 4.75593 18.6975 5.10586 19.0474C5.45579 19.3974 5.78893 19.6141 6.25573 19.7955C6.60813 19.9324 7.13765 20.0954 8.11269 20.1398C9.16709 20.1879 9.48332 20.1981 12.1538 20.1981C14.8242 20.1981 15.1405 20.1879 16.1949 20.1398C17.1699 20.0954 17.6994 19.9324 18.0518 19.7955C18.5186 19.6141 18.8518 19.3974 19.2017 19.0474C19.5517 18.6975 19.7684 18.3643 19.9498 17.8975C20.0867 17.5451 20.2497 17.0156 20.2941 16.0406C20.3422 14.986 20.3524 14.6697 20.3524 11.9995C20.3524 9.32922 20.3422 9.01292 20.2941 7.9584C20.2497 6.98335 20.0867 6.45383 19.9498 6.10144C19.7684 5.63464 19.5517 5.3015 19.2017 4.95157C18.8518 4.60159 18.5186 4.38489 18.0518 4.20347C17.6994 4.06651 17.1699 3.9036 16.1949 3.85914C15.2458 3.81583 14.8947 3.80324 12.8873 3.80115ZM12.1538 6.9992C14.9154 6.9992 17.1541 9.23788 17.1541 11.9995C17.1541 14.7611 14.9154 16.9998 12.1538 16.9998C9.39218 16.9998 7.1535 14.7611 7.1535 11.9995C7.1535 9.23788 9.39218 6.9992 12.1538 6.9992ZM12.1538 8.75368C10.3612 8.75368 8.90798 10.2069 8.90798 11.9995C8.90798 13.7921 10.3612 15.2453 12.1538 15.2453C13.9464 15.2453 15.3996 13.7921 15.3996 11.9995C15.3996 10.2069 13.9464 8.75368 12.1538 8.75368ZM17.5707 5.33244C18.2611 5.33244 18.8208 5.89213 18.8208 6.58253C18.8208 7.27293 18.2611 7.83258 17.5707 7.83258C16.8804 7.83258 16.3207 7.27293 16.3207 6.58253C16.3207 5.89213 16.8804 5.33244 17.5707 5.33244Z" />
</svg>
