<svg viewBox="0 0 94 25" fill="none" xmlns="http://www.w3.org/2000/svg">
<path d="M6.824 12.04C6.072 12.92 5.304 13.36 4.52 13.36C4.024 13.36 3.632 13.184 3.344 12.832C3.072 12.48 2.936 12.016 2.936 11.44C2.936 10.512 3.272 9.56 3.944 8.584C5.368 6.52 6.712 5.488 7.976 5.488C8.328 5.488 8.608 5.608 8.816 5.848C9.04 6.072 9.168 6.344 9.2 6.664C9.328 6.44 9.536 6.128 9.824 5.728C10 5.536 10.144 5.496 10.256 5.608C10.448 5.8 10.544 6.104 10.544 6.52C10.544 6.904 10.448 7.304 10.256 7.72C9.792 8.488 9.184 9.584 8.432 11.008C8.192 11.552 8.072 12 8.072 12.352C8.072 12.64 8.152 12.8 8.312 12.832C8.6 12.896 8.952 12.704 9.368 12.256C9.864 11.728 10.336 10.952 10.784 9.928C11.232 8.888 11.456 7.864 11.456 6.856C11.456 5.288 10.976 4.296 10.016 3.88C9.696 3.752 9.344 3.688 8.96 3.688C8.08 3.688 7.152 3.984 6.176 4.576C5.12 5.232 4.176 6.136 3.344 7.288C2.272 8.792 1.736 10.328 1.736 11.896C1.736 13.416 2.224 14.4 3.2 14.848C3.552 15.008 3.952 15.088 4.4 15.088C5.584 15.088 6.584 14.696 7.4 13.912C7.64 13.688 7.76 13.72 7.76 14.008C7.76 14.648 7.456 15.144 6.848 15.496C6.32 15.8 5.688 15.952 4.952 15.952C4.296 15.952 3.696 15.848 3.152 15.64C1.376 14.952 0.472 13.552 0.44 11.44C0.408 9.36 1.216 7.4 2.864 5.56C4.304 3.944 5.784 2.968 7.304 2.632C7.672 2.552 8.032 2.512 8.384 2.512C9.296 2.512 10.032 2.8 10.592 3.376C12.048 4.048 12.776 5.328 12.776 7.216C12.776 8.176 12.584 9.128 12.2 10.072C11.752 11.192 11.176 12.064 10.472 12.688C9.768 13.312 9.064 13.6 8.36 13.552C7.384 13.488 6.872 12.984 6.824 12.04ZM8.24 6.496C7.92 6.48 7.472 6.736 6.896 7.264C6.288 7.84 5.728 8.536 5.216 9.352C4.592 10.36 4.28 11.224 4.28 11.944C4.28 12.392 4.432 12.624 4.736 12.64C5.44 12.656 6.344 11.72 7.448 9.832C8.184 8.568 8.552 7.616 8.552 6.976C8.552 6.672 8.448 6.512 8.24 6.496ZM13.9985 12.064C15.2305 10.384 16.1505 9.008 16.7585 7.936C16.8545 7.136 17.1425 6.52 17.6225 6.088C17.9745 5.768 18.3025 5.608 18.6065 5.608C18.8945 5.608 19.0385 5.744 19.0385 6.016C19.0385 6.144 18.8465 6.552 18.4625 7.24C18.4305 7.56 18.4145 7.896 18.4145 8.248C18.4145 8.808 18.4705 9.64 18.5825 10.744C18.6625 11.752 18.6945 12.496 18.6785 12.976C18.6145 14.208 18.2545 15.048 17.5985 15.496C18.9425 15 20.0145 13.888 20.8145 12.16C20.8785 12.032 20.9585 11.976 21.0545 11.992C21.1505 11.992 21.2225 12.048 21.2705 12.16C21.4305 12.512 21.3185 13.04 20.9345 13.744C20.0065 15.424 18.5905 16.304 16.6865 16.384C15.0065 16.448 13.8225 15.848 13.1345 14.584C12.8785 14.12 12.7505 13.6 12.7505 13.024C12.7505 12.224 12.9825 11.632 13.4465 11.248C13.5585 11.168 13.6465 11.128 13.7105 11.128C13.8385 11.128 13.9185 11.256 13.9505 11.512C13.9665 11.704 13.9825 11.888 13.9985 12.064ZM16.7105 9.472C16.1505 10.496 15.3185 11.792 14.2145 13.36C14.5825 14.816 15.1185 15.544 15.8225 15.544C16.5105 15.544 16.8545 14.56 16.8545 12.592C16.8545 12.288 16.8065 11.248 16.7105 9.472ZM28.0807 8.2C28.4327 7.544 28.7207 7.056 28.9447 6.736C29.0727 6.56 29.1927 6.472 29.3047 6.472C29.4807 6.472 29.6247 6.656 29.7367 7.024C29.8167 7.296 29.8567 7.544 29.8567 7.768C29.8567 8.264 29.7367 8.76 29.4967 9.256C28.9207 10.216 28.1527 11.6 27.1927 13.408C26.9047 14.064 26.7607 14.6 26.7607 15.016C26.7607 15.512 26.9687 15.752 27.3847 15.736C27.8487 15.704 28.3927 15.344 29.0167 14.656C29.5607 14.048 30.0647 13.296 30.5287 12.4C30.6727 12.128 30.8007 12.12 30.9127 12.376C31.0727 12.728 31.0007 13.224 30.6967 13.864C30.3767 14.568 29.8887 15.168 29.2327 15.664C28.5447 16.208 27.8807 16.464 27.2407 16.432C25.9287 16.352 25.2727 15.696 25.2727 14.464C24.2967 15.712 23.2967 16.336 22.2727 16.336C21.6487 16.336 21.1607 16.12 20.8087 15.688C20.4727 15.256 20.3047 14.688 20.3047 13.984C20.3047 12.816 20.7287 11.616 21.5767 10.384C22.4887 9.056 23.4247 8.048 24.3847 7.36C25.2007 6.768 25.9447 6.472 26.6167 6.472C27.1127 6.472 27.4887 6.64 27.7447 6.976C28.0007 7.296 28.1127 7.704 28.0807 8.2ZM25.9927 11.92C26.9367 10.288 27.4087 9.088 27.4087 8.32C27.4087 7.952 27.2807 7.752 27.0247 7.72C26.6247 7.688 26.0567 8.016 25.3207 8.704C24.5367 9.424 23.8247 10.304 23.1847 11.344C22.3847 12.624 21.9847 13.736 21.9847 14.68C21.9847 15.24 22.1687 15.528 22.5367 15.544C23.4327 15.56 24.5847 14.352 25.9927 11.92ZM34.0381 8.416C34.7581 8.32 35.5821 7.952 36.5101 7.312C36.7981 7.12 37.0141 7.104 37.1581 7.264C37.5901 7.76 37.8061 8.264 37.8061 8.776C37.8061 9.096 37.7021 9.376 37.4941 9.616C36.0381 11.264 35.1581 12.592 34.8541 13.6C34.7421 13.968 34.6861 14.312 34.6861 14.632C34.6861 15.4 34.9421 15.792 35.4541 15.808C35.9021 15.824 36.3981 15.52 36.9421 14.896C37.4381 14.304 37.8941 13.552 38.3101 12.64C38.4221 12.384 38.5341 12.376 38.6461 12.616C38.8221 12.984 38.7821 13.48 38.5261 14.104C38.2541 14.792 37.8061 15.368 37.1821 15.832C36.5741 16.28 35.9501 16.488 35.3101 16.456C34.6701 16.424 34.1661 16.208 33.7981 15.808C33.4461 15.392 33.2701 14.864 33.2701 14.224C33.2701 12.848 34.3021 10.976 36.3661 8.608C35.4381 9.216 34.5021 9.52 33.5581 9.52C32.8861 10.672 32.2141 11.824 31.5421 12.976C30.6301 14.624 30.0781 15.896 29.8861 16.792C29.8221 17.08 29.6861 17.12 29.4781 16.912C29.1261 16.544 28.9501 16.088 28.9501 15.544C28.9501 15.032 29.1101 14.48 29.4301 13.888C29.7341 13.28 30.7501 11.744 32.4781 9.28C32.1741 9.088 32.0221 8.792 32.0221 8.392C32.0221 7.832 32.2781 7.208 32.7901 6.52C33.3021 5.88 33.7341 5.552 34.0861 5.536C34.4061 5.52 34.5661 5.76 34.5661 6.256C34.5661 6.8 34.3901 7.52 34.0381 8.416ZM45.776 8.2C46.128 7.544 46.416 7.056 46.64 6.736C46.768 6.56 46.888 6.472 47 6.472C47.176 6.472 47.32 6.656 47.432 7.024C47.512 7.296 47.552 7.544 47.552 7.768C47.552 8.264 47.432 8.76 47.192 9.256C46.616 10.216 45.848 11.6 44.888 13.408C44.6 14.064 44.456 14.6 44.456 15.016C44.456 15.512 44.664 15.752 45.08 15.736C45.544 15.704 46.088 15.344 46.712 14.656C47.256 14.048 47.76 13.296 48.224 12.4C48.368 12.128 48.496 12.12 48.608 12.376C48.768 12.728 48.696 13.224 48.392 13.864C48.072 14.568 47.584 15.168 46.928 15.664C46.24 16.208 45.576 16.464 44.936 16.432C43.624 16.352 42.968 15.696 42.968 14.464C41.992 15.712 40.992 16.336 39.968 16.336C39.344 16.336 38.856 16.12 38.504 15.688C38.168 15.256 38 14.688 38 13.984C38 12.816 38.424 11.616 39.272 10.384C40.184 9.056 41.12 8.048 42.08 7.36C42.896 6.768 43.64 6.472 44.312 6.472C44.808 6.472 45.184 6.64 45.44 6.976C45.696 7.296 45.808 7.704 45.776 8.2ZM43.688 11.92C44.632 10.288 45.104 9.088 45.104 8.32C45.104 7.952 44.976 7.752 44.72 7.72C44.32 7.688 43.752 8.016 43.016 8.704C42.232 9.424 41.52 10.304 40.88 11.344C40.08 12.624 39.68 13.736 39.68 14.68C39.68 15.24 39.864 15.528 40.232 15.544C41.128 15.56 42.28 14.352 43.688 11.92ZM57.3494 13.816C56.9974 14.52 56.5014 15.12 55.8614 15.616C55.1734 16.128 54.4854 16.384 53.7974 16.384C52.3894 16.384 51.6854 15.736 51.6854 14.44C51.6854 13.976 51.7894 13.44 51.9974 12.832C52.2694 12.048 52.7814 11.024 53.5334 9.76C54.2054 8.656 54.5414 8.032 54.5414 7.888C54.5414 7.84 54.5254 7.808 54.4934 7.792C54.2854 7.664 53.6934 7.976 52.7174 8.728C51.6294 9.56 50.7734 10.488 50.1494 11.512C49.1734 13.112 48.3974 14.632 47.8214 16.072C47.7254 16.328 47.5894 16.36 47.4134 16.168C47.1574 15.88 47.0294 15.512 47.0294 15.064C47.0294 14.664 47.1254 14.184 47.3174 13.624C47.7334 12.44 48.8934 10.232 50.7974 7C52.6694 3.816 54.1014 1.6 55.0934 0.352C55.2054 0.224 55.3094 0.159999 55.4054 0.159999C55.6934 0.159999 55.8374 0.52 55.8374 1.24C55.8374 2.008 55.5574 2.856 54.9974 3.784C54.8374 4.04 53.8774 5.544 52.1174 8.296C53.3494 7.096 54.3094 6.536 54.9974 6.616C55.3014 6.648 55.5734 6.816 55.8134 7.12C56.0534 7.424 56.1734 7.784 56.1734 8.2C56.1734 8.52 56.0934 8.832 55.9334 9.136C55.3734 10.064 54.6294 11.416 53.7014 13.192C53.4454 13.768 53.3174 14.272 53.3174 14.704C53.3174 15.376 53.5814 15.696 54.1094 15.664C54.5734 15.648 55.1094 15.28 55.7174 14.56C56.2774 13.936 56.7574 13.2 57.1574 12.352C57.2054 12.24 57.2774 12.184 57.3734 12.184C57.4694 12.184 57.5414 12.232 57.5894 12.328C57.7494 12.664 57.6694 13.16 57.3494 13.816ZM57.7563 12.064C58.9883 10.384 59.9083 9.008 60.5163 7.936C60.6123 7.136 60.9003 6.52 61.3803 6.088C61.7323 5.768 62.0603 5.608 62.3643 5.608C62.6523 5.608 62.7963 5.744 62.7963 6.016C62.7963 6.144 62.6043 6.552 62.2203 7.24C62.1883 7.56 62.1723 7.896 62.1723 8.248C62.1723 8.808 62.2283 9.64 62.3403 10.744C62.4203 11.752 62.4523 12.496 62.4363 12.976C62.3723 14.208 62.0123 15.048 61.3563 15.496C62.7003 15 63.7723 13.888 64.5723 12.16C64.6363 12.032 64.7163 11.976 64.8123 11.992C64.9083 11.992 64.9803 12.048 65.0283 12.16C65.1883 12.512 65.0763 13.04 64.6923 13.744C63.7643 15.424 62.3483 16.304 60.4443 16.384C58.7643 16.448 57.5803 15.848 56.8923 14.584C56.6363 14.12 56.5083 13.6 56.5083 13.024C56.5083 12.224 56.7403 11.632 57.2043 11.248C57.3163 11.168 57.4043 11.128 57.4683 11.128C57.5963 11.128 57.6763 11.256 57.7083 11.512C57.7243 11.704 57.7403 11.888 57.7563 12.064ZM60.4683 9.472C59.9083 10.496 59.0763 11.792 57.9723 13.36C58.3403 14.816 58.8763 15.544 59.5803 15.544C60.2683 15.544 60.6123 14.56 60.6123 12.592C60.6123 12.288 60.5643 11.248 60.4683 9.472ZM70.7105 13.408C70.3905 14.096 70.2305 14.648 70.2305 15.064C70.2305 15.528 70.4385 15.752 70.8545 15.736C71.3185 15.704 71.8545 15.352 72.4625 14.68C73.0065 14.072 73.5105 13.32 73.9745 12.424C74.1185 12.152 74.2465 12.144 74.3585 12.4C74.5345 12.768 74.4705 13.264 74.1665 13.888C73.8305 14.576 73.3425 15.168 72.7025 15.664C72.0145 16.192 71.3505 16.44 70.7105 16.408C69.4145 16.344 68.7665 15.704 68.7665 14.488C67.7745 15.72 66.7825 16.336 65.7905 16.336C65.1665 16.336 64.6865 16.12 64.3505 15.688C64.0145 15.256 63.8465 14.688 63.8465 13.984C63.8465 12.832 64.2625 11.64 65.0945 10.408C65.9745 9.112 66.8945 8.12 67.8545 7.432C68.6865 6.84 69.4385 6.544 70.1105 6.544C70.5745 6.544 70.9345 6.704 71.1905 7.024C71.4465 7.328 71.5665 7.712 71.5505 8.176C73.3425 4.752 74.6705 2.432 75.5345 1.216C75.6465 1.056 75.7505 0.975999 75.8465 0.975999C75.9585 0.975999 76.0465 1.056 76.1105 1.216C76.2225 1.504 76.2785 1.808 76.2785 2.128C76.2785 2.832 75.9745 3.736 75.3665 4.84C74.2145 6.84 72.6625 9.696 70.7105 13.408ZM70.4945 7.768C70.1105 7.752 69.5505 8.088 68.8145 8.776C68.0305 9.48 67.3185 10.344 66.6785 11.368C65.8945 12.632 65.5025 13.728 65.5025 14.656C65.5025 15.232 65.6865 15.528 66.0545 15.544C67.0625 15.576 68.1905 14.384 69.4385 11.968C70.3665 10.176 70.8305 8.944 70.8305 8.272C70.8305 7.936 70.7185 7.768 70.4945 7.768ZM81.4713 8.2C81.8233 7.544 82.1113 7.056 82.3353 6.736C82.4633 6.56 82.5833 6.472 82.6953 6.472C82.8713 6.472 83.0153 6.656 83.1273 7.024C83.2073 7.296 83.2473 7.544 83.2473 7.768C83.2473 8.264 83.1273 8.76 82.8873 9.256C82.3113 10.216 81.5433 11.6 80.5833 13.408C80.2953 14.064 80.1513 14.6 80.1513 15.016C80.1513 15.512 80.3593 15.752 80.7753 15.736C81.2393 15.704 81.7833 15.344 82.4073 14.656C82.9513 14.048 83.4553 13.296 83.9193 12.4C84.0633 12.128 84.1913 12.12 84.3033 12.376C84.4633 12.728 84.3913 13.224 84.0873 13.864C83.7673 14.568 83.2793 15.168 82.6233 15.664C81.9353 16.208 81.2713 16.464 80.6313 16.432C79.3193 16.352 78.6633 15.696 78.6633 14.464C77.6873 15.712 76.6873 16.336 75.6633 16.336C75.0393 16.336 74.5513 16.12 74.1993 15.688C73.8633 15.256 73.6953 14.688 73.6953 13.984C73.6953 12.816 74.1193 11.616 74.9673 10.384C75.8793 9.056 76.8153 8.048 77.7753 7.36C78.5913 6.768 79.3353 6.472 80.0073 6.472C80.5033 6.472 80.8793 6.64 81.1353 6.976C81.3913 7.296 81.5033 7.704 81.4713 8.2ZM79.3833 11.92C80.3273 10.288 80.7993 9.088 80.7993 8.32C80.7993 7.952 80.6713 7.752 80.4153 7.72C80.0153 7.688 79.4473 8.016 78.7113 8.704C77.9273 9.424 77.2153 10.304 76.5753 11.344C75.7753 12.624 75.3753 13.736 75.3753 14.68C75.3753 15.24 75.5593 15.528 75.9273 15.544C76.8233 15.56 77.9753 14.352 79.3833 11.92ZM92.7328 13.672C91.9648 14.872 90.4288 15.944 88.1248 16.888C87.2128 19.048 86.4528 20.664 85.8448 21.736C84.8848 23.4 83.9648 24.4 83.0847 24.736C82.9247 24.8 82.7727 24.832 82.6287 24.832C82.2927 24.832 81.9887 24.632 81.7167 24.232C81.2687 23.56 81.0447 22.936 81.0447 22.36C81.0447 22.024 81.1087 21.656 81.2367 21.256C81.8767 19.32 83.5888 17.808 86.3728 16.72C86.5328 16.336 86.7808 15.76 87.1168 14.992C86.2048 15.936 85.3328 16.376 84.5008 16.312C83.4767 16.232 82.9647 15.624 82.9647 14.488C82.9647 13.976 83.0687 13.424 83.2767 12.832C83.9647 10.848 85.0528 8.824 86.5408 6.76C86.7328 6.488 86.9328 6.488 87.1408 6.76C87.3648 7.064 87.4768 7.408 87.4768 7.792C87.4768 8.384 87.2128 9.104 86.6848 9.952C85.8688 11.248 85.2528 12.416 84.8368 13.456C84.6128 14 84.5008 14.456 84.5008 14.824C84.5008 15.256 84.6528 15.488 84.9568 15.52C85.7728 15.584 86.8928 14.4 88.3168 11.968C89.0048 10.656 89.9728 8.936 91.2208 6.808C91.4128 6.52 91.6128 6.464 91.8208 6.64C92.0288 6.912 92.1328 7.288 92.1328 7.768C92.1328 8.28 91.9968 8.8 91.7248 9.328C90.3008 12.08 89.2368 14.28 88.5328 15.928C90.2448 15 91.6608 13.768 92.7808 12.232C92.8448 12.136 92.9168 12.096 92.9968 12.112C93.0768 12.112 93.1328 12.168 93.1648 12.28C93.2448 12.632 93.1008 13.096 92.7328 13.672ZM85.9648 17.728C84.7488 18.432 83.7728 19.368 83.0367 20.536C82.4127 21.512 82.1007 22.344 82.1007 23.032C82.1007 23.32 82.1647 23.464 82.2927 23.464C82.5807 23.464 83.0847 22.92 83.8048 21.832C84.6048 20.632 85.3248 19.264 85.9648 17.728Z" />
</svg>
